<?xml version="1.0" encoding="UTF-8" standalone="no"?><!DOCTYPE svg PUBLIC "-//W3C//DTD SVG 1.1//EN" "http://www.w3.org/Graphics/SVG/1.1/DTD/svg11.dtd"><svg width="100%" height="100%" viewBox="0 0 152 98" version="1.1" xmlns="http://www.w3.org/2000/svg" xmlns:xlink="http://www.w3.org/1999/xlink" xml:space="preserve" xmlns:serif="http://www.serif.com/" style="fill-rule:evenodd;clip-rule:evenodd;stroke-linejoin:round;stroke-miterlimit:2;"><g><path d="M48.731,46.166c-0.409,-3.242 -1.503,-6.125 -3.251,-8.572c-1.58,-2.206 -3.572,-3.866 -5.947,-4.96c4.511,-2.784 6.792,-7.395 6.792,-13.751c-0,-5.929 -2.393,-10.713 -7.101,-14.211c-4.092,-3.1 -9.115,-4.672 -14.934,-4.672c-6.781,0 -12.369,2.285 -16.622,6.803c-3.944,4.275 -6.108,9.905 -6.433,16.734l-0.076,1.619l13.789,0l-0.055,-1.599c-0.114,-3.257 0.67,-5.988 2.395,-8.353c1.62,-2.225 3.849,-3.307 6.815,-3.307c2.594,0 4.637,0.706 6.243,2.152c1.56,1.41 2.319,3.204 2.319,5.483c-0,3.14 -1.231,5.371 -3.803,6.841c-2.255,1.373 -5.257,1.985 -8.953,1.815l-1.616,-0.074l-0,11.113l1.613,-0.071c13.85,-0.611 14.848,5.465 15.179,7.458c0.119,0.703 0.176,1.369 0.176,2.032c-0,3.155 -0.969,5.553 -2.961,7.332c-2.043,1.826 -4.633,2.713 -7.918,2.713c-3.562,0 -6.203,-1.118 -8.095,-3.442c-1.838,-2.161 -2.712,-5.116 -2.598,-8.781l0.048,-1.593l-13.737,0l0.027,1.573c0.129,7.354 2.239,13.225 6.279,17.46c4.301,4.434 10.383,6.681 18.076,6.681c6.768,0 12.528,-1.929 17.107,-5.723c4.931,-4 7.432,-9.27 7.432,-15.664c-0,-1.008 -0.064,-2.03 -0.19,-3.036" style="fill:#34a853;fill-rule:nonzero;"/><path d="M86.533,46.699c0,3.345 -0.862,6.183 -2.561,8.431c-1.811,2.397 -4.198,3.562 -7.298,3.562c-3.172,0 -5.624,-1.17 -7.509,-3.595c-1.769,-2.207 -2.627,-4.953 -2.623,-8.526l0.008,-0.187c0.051,-3.253 0.928,-5.936 2.621,-7.999c1.809,-2.288 4.263,-3.4 7.503,-3.4c3.168,0 5.526,1.063 7.213,3.246c1.695,2.199 2.581,4.943 2.634,8.169l0.012,0.299Zm13.648,-0.185l-0.007,-0.18c-0.104,-6.494 -2.039,-11.895 -5.762,-16.066c-4.056,-4.458 -9.525,-6.717 -16.254,-6.717c-5.01,-0 -9.082,1.464 -12.159,4.361c0.499,-3.881 1.2,-6.926 2.092,-9.089c1.916,-4.66 4.966,-6.925 9.324,-6.925c2.318,0 4.118,0.659 5.501,2.016c1.412,1.385 2.203,3.18 2.419,5.486l0.131,1.4l13.598,0l-0.076,-1.62c-0.267,-5.601 -2.473,-10.256 -6.553,-13.836c-4.044,-3.546 -8.941,-5.344 -14.555,-5.344c-8.952,0 -15.824,3.936 -20.43,11.699c-3.711,6.27 -5.593,14.146 -5.593,23.41c0,4.161 0.246,8.018 0.732,11.466c0.762,5.419 2.145,9.901 4.112,13.322c4.108,7.094 10.952,10.692 20.343,10.692c6.841,0 12.475,-2.283 16.746,-6.786c4.248,-4.479 6.403,-10.171 6.403,-16.918c0,-0.127 -0.006,-0.248 -0.012,-0.371" style="fill:#fbbc04;fill-rule:nonzero;"/><path d="M127.576,58.692c-5.067,-0 -8.199,-4.116 -9.572,-12.58c-0.498,-3.065 -0.75,-6.705 -0.75,-10.817c-0,-15.525 3.472,-23.397 10.322,-23.397c6.85,-0 10.324,7.872 10.324,23.397c-0,4.103 -0.252,7.743 -0.75,10.817c-1.375,8.464 -4.507,12.58 -9.574,12.58m19.559,-46.519c-3.973,-8.077 -10.554,-12.172 -19.559,-12.172c-9.006,-0 -15.587,4.097 -19.555,12.166c-2.938,5.873 -4.427,13.654 -4.427,23.128c-0,4.017 0.283,7.823 0.843,11.309c0.729,4.548 1.936,8.525 3.58,11.81c3.972,8.078 10.553,12.175 19.559,12.175c9.006,-0 15.587,-4.095 19.556,-12.166c1.647,-3.294 2.854,-7.271 3.584,-11.819c0.56,-3.496 0.844,-7.301 0.844,-11.309c-0,-9.465 -1.489,-17.244 -4.425,-23.122" style="fill:#fbbc04;fill-rule:nonzero;"/><path d="M66.111,83.294c-0,0.901 -0.137,1.669 -0.409,2.282c-0.257,0.577 -0.59,1.009 -0.993,1.282c-0.395,0.272 -0.813,0.403 -1.275,0.403c-0.802,0 -1.458,-0.312 -2.006,-0.957c-0.571,-0.671 -0.861,-1.661 -0.861,-2.942c-0,-1.369 0.29,-2.395 0.863,-3.052c0.552,-0.635 1.207,-0.943 2.004,-0.943c0.481,0 0.911,0.137 1.31,0.42c0.416,0.297 0.738,0.719 0.981,1.292c0.256,0.602 0.386,1.347 0.386,2.215m1.788,-7.218c-1.986,-1.22 -4.583,-1.316 -6.474,-0.301c-0.422,0.227 -0.837,0.518 -1.243,0.87c-0.116,-0.308 -0.281,-0.58 -0.495,-0.81c-0.961,-1.038 -2.792,-1.015 -3.691,0.001c-0.435,0.492 -0.656,1.197 -0.656,2.093l-0,15.999c-0,0.944 0.141,1.665 0.432,2.208c0.256,0.472 0.821,1.037 2.066,1.037c0.767,0 2.552,-0.314 2.552,-3.217l-0,-3.66c0.291,0.24 0.589,0.451 0.892,0.631c1.529,0.904 3.935,1.026 5.846,0.152c0.865,-0.392 1.623,-0.961 2.253,-1.69c0.625,-0.719 1.12,-1.615 1.473,-2.663c0.347,-1.031 0.524,-2.174 0.524,-3.391c-0,-1.664 -0.308,-3.13 -0.915,-4.362c-0.619,-1.258 -1.48,-2.233 -2.564,-2.897" style="fill:#fbbc04;fill-rule:nonzero;"/><path d="M85.207,77.956c-0,-0.652 -0.262,-1.568 -1.51,-2.23c-1.74,-0.927 -3.823,-0.892 -4.992,0.087c-0.168,0.141 -0.332,0.299 -0.494,0.474c-0.057,-0.113 -0.122,-0.22 -0.191,-0.321c-0.292,-0.417 -0.868,-0.915 -1.965,-0.915c-0.963,0 -2.579,0.426 -2.579,3.272l-0,10.322c-0,0.937 0.241,1.678 0.715,2.203c0.489,0.539 1.142,0.824 1.891,0.824c0.75,0 1.409,-0.279 1.907,-0.806c0.491,-0.522 0.74,-1.269 0.74,-2.221l-0,-3.097c-0,-1.083 0.035,-2.013 0.105,-2.76c0.067,-0.71 0.186,-1.325 0.356,-1.828c0.144,-0.421 0.332,-0.731 0.565,-0.923c0.374,-0.314 1.026,-0.339 1.975,-0.036c0.784,0.255 1.052,0.289 1.224,0.289c0.56,0 1.093,-0.226 1.538,-0.65c0.468,-0.436 0.715,-1.018 0.715,-1.684" style="fill:#fbbc04;fill-rule:nonzero;"/><path d="M92.573,79.34c0.881,0 1.56,0.317 2.076,0.969c0.553,0.7 0.832,1.726 0.832,3.053c-0,1.31 -0.281,2.33 -0.832,3.032c-0.517,0.657 -1.196,0.976 -2.076,0.976c-0.587,0 -1.073,-0.142 -1.491,-0.436c-0.429,-0.301 -0.753,-0.734 -0.993,-1.323c-0.254,-0.627 -0.383,-1.384 -0.383,-2.249c-0,-0.873 0.131,-1.639 0.39,-2.276c0.244,-0.593 0.569,-1.025 0.995,-1.316c0.427,-0.289 0.911,-0.43 1.482,-0.43m5.959,-1.963c-0.726,-0.745 -1.607,-1.327 -2.618,-1.728c-1.987,-0.787 -4.625,-0.798 -6.652,-0.009c-1.016,0.4 -1.893,0.975 -2.608,1.71c-0.715,0.736 -1.27,1.631 -1.651,2.661c-0.374,1.015 -0.564,2.142 -0.564,3.351c-0,1.204 0.189,2.321 0.557,3.314c0.374,1.02 0.935,1.916 1.664,2.662c0.726,0.748 1.599,1.332 2.594,1.735c0.986,0.397 2.101,0.6 3.319,0.6c1.221,0 2.345,-0.198 3.339,-0.591c1.004,-0.395 1.881,-0.974 2.607,-1.721c0.724,-0.746 1.284,-1.646 1.664,-2.676c0.374,-1.014 0.564,-2.133 0.564,-3.323c-0,-1.197 -0.187,-2.314 -0.556,-3.323c-0.378,-1.023 -0.936,-1.92 -1.659,-2.662" style="fill:#fbbc04;fill-rule:nonzero;"/><path d="M102.629,86.869c-0.534,0.546 -0.804,1.208 -0.804,1.966c-0,0.88 0.293,1.585 0.87,2.099c0.551,0.49 1.214,0.739 1.967,0.739c0.741,-0 1.393,-0.254 1.938,-0.752c0.561,-0.509 0.858,-1.23 0.858,-2.086c-0,-0.765 -0.289,-1.451 -0.836,-1.983c-1.106,-1.085 -2.92,-1.08 -3.993,0.017" style="fill:#fbbc04;fill-rule:nonzero;"/><path d="M130.866,75.77c-1.577,-0.857 -3.958,-0.96 -5.718,-0.056c-0.55,0.281 -1.077,0.665 -1.577,1.15c-0.395,-0.469 -0.851,-0.848 -1.364,-1.132c-1.53,-0.845 -3.851,-0.877 -5.566,-0.03c-0.413,0.204 -0.815,0.465 -1.201,0.782c-0.119,-0.26 -0.281,-0.494 -0.486,-0.7c-1.002,-0.993 -2.75,-0.96 -3.663,0.07c-0.447,0.506 -0.675,1.214 -0.675,2.103l-0,10.607c-0,0.963 0.247,1.725 0.737,2.267c1.01,1.109 2.919,1.101 3.91,-0.011c0.474,-0.54 0.714,-1.3 0.714,-2.256l-0,-5.012c-0,-1.438 0.171,-2.535 0.506,-3.261c0.158,-0.344 0.507,-0.801 1.696,-0.801c0.367,-0 0.617,0.075 0.741,0.221c0.184,0.216 0.294,0.5 0.34,0.865c0.058,0.483 0.088,1.183 0.088,2.08l-0,5.908c-0,0.972 0.242,1.734 0.72,2.268c0.992,1.108 2.928,1.086 3.912,0.003c0.484,-0.534 0.73,-1.298 0.73,-2.271l-0,-4.93c-0,-1.832 0.187,-2.646 0.326,-2.968c0.184,-0.37 0.434,-0.654 0.759,-0.87c0.663,-0.435 1.479,-0.366 1.757,-0.068c0.191,0.21 0.308,0.471 0.355,0.792c0.062,0.45 0.093,1.06 0.093,1.81l-0,6.234c-0,0.963 0.247,1.725 0.738,2.267c0.501,0.55 1.175,0.842 1.95,0.842c0.792,-0 1.474,-0.29 1.97,-0.838c0.485,-0.534 0.731,-1.298 0.731,-2.271l-0,-7.239c-0,-1.57 -0.18,-2.714 -0.554,-3.503c-0.431,-0.887 -1.094,-1.577 -1.969,-2.052" style="fill:#fbbc04;fill-rule:nonzero;"/><path d="M148.587,87.334l-3.037,-4.352l2.635,-3.549c0.304,-0.396 0.527,-0.735 0.679,-1.037c0.187,-0.365 0.283,-0.756 0.283,-1.159c-0,-0.613 -0.26,-1.159 -0.752,-1.585c-0.889,-0.757 -2.386,-0.809 -3.275,-0.072c-0.339,0.279 -0.715,0.709 -1.151,1.317l-1.716,2.415l-1.769,-2.419c-0.422,-0.583 -0.789,-1.005 -1.121,-1.288c-0.898,-0.774 -2.454,-0.715 -3.312,0.07c-0.466,0.426 -0.714,0.966 -0.714,1.562c-0,0.673 0.306,1.392 0.927,2.185l2.642,3.56l-3.035,4.351c-0.614,0.878 -0.901,1.549 -0.901,2.114c-0,0.603 0.263,1.153 0.755,1.587c0.908,0.814 2.389,0.847 3.272,0.1c0.327,-0.281 0.698,-0.711 1.142,-1.326l2.115,-3.034l2.059,3.026l0.009,0.013c0.424,0.597 0.802,1.028 1.147,1.313c0.433,0.362 0.963,0.547 1.574,0.547c0.669,-0 1.245,-0.206 1.713,-0.609c0.495,-0.427 0.757,-0.976 0.757,-1.59c-0,-0.556 -0.294,-1.236 -0.926,-2.14" style="fill:#fbbc04;fill-rule:nonzero;"/></g></svg>